<svg width="15" height="19" viewBox="0 0 15 19" fill="none" xmlns="http://www.w3.org/2000/svg">
<path d="M14.1666 10.0004C14.1666 14.1671 11.25 16.2504 7.78331 17.4587C7.60178 17.5202 7.40459 17.5173 7.22498 17.4504C3.74998 16.2504 0.833313 14.1671 0.833313 10.0004V4.16705C0.833313 3.94604 0.921111 3.73408 1.07739 3.5778C1.23367 3.42152 1.44563 3.33372 1.66665 3.33372C3.33331 3.33372 5.41665 2.33372 6.86665 1.06705C7.04319 0.916217 7.26777 0.833344 7.49998 0.833344C7.73218 0.833344 7.95677 0.916217 8.13331 1.06705C9.59165 2.34205 11.6666 3.33372 13.3333 3.33372C13.5543 3.33372 13.7663 3.42152 13.9226 3.5778C14.0788 3.73408 14.1666 3.94604 14.1666 4.16705V10.0004Z" stroke="#8B1538" stroke-width="1.66667" stroke-linecap="round" stroke-linejoin="round"/>
</svg>
